PathFileType	4	(X/Y/Z)	outputs\dynamic_markers.trc
DataRate	CameraRate	NumFrames	NumMarkers	Units	OrigDataRate	OrigDataStartFrame	OrigNumFrames
360.000000	360.000000	4	48	m	360.000000	79	639
Frame#	Time	C7			CLAV			LANK			LASI			LBAK			LBHD			LELB			LFHD			LFIN			LFRM			LHEE			LIC			LKNE			LMANK			LMELB			LMKNE			LPSI			LSHO			LTHI			LTIB			LTOE			LUPA			LWRA			LWRB			RANK			RASI			RBAK			RBHD			RELB			RFHD			RFIN			RFRM			RHEE			RIC			RKNE			RMANK			RMELB			RMKNE			RPSI			RSHO			RTHI			RTIB			RTOE			RUPA			RWRA			RWRB			STRN			T10			
		X1	Y1	Z1	X2	Y2	Z2	X3	Y3	Z3	X4	Y4	Z4	X5	Y5	Z5	X6	Y6	Z6	X7	Y7	Z7	X8	Y8	Z8	X9	Y9	Z9	X10	Y10	Z10	X11	Y11	Z11	X12	Y12	Z12	X13	Y13	Z13	X14	Y14	Z14	X15	Y15	Z15	X16	Y16	Z16	X17	Y17	Z17	X18	Y18	Z18	X19	Y19	Z19	X20	Y20	Z20	X21	Y21	Z21	X22	Y22	Z22	X23	Y23	Z23	X24	Y24	Z24	X25	Y25	Z25	X26	Y26	Z26	X27	Y27	Z27	X28	Y28	Z28	X29	Y29	Z29	X30	Y30	Z30	X31	Y31	Z31	X32	Y32	Z32	X33	Y33	Z33	X34	Y34	Z34	X35	Y35	Z35	X36	Y36	Z36	X37	Y37	Z37	X38	Y38	Z38	X39	Y39	Z39	X40	Y40	Z40	X41	Y41	Z41	X42	Y42	Z42	X43	Y43	Z43	X44	Y44	Z44	X45	Y45	Z45	X46	Y46	Z46	X47	Y47	Z47	X48	Y48	Z48	

80	0.2194444444444444	0.08716665953397751	1.647854328155518	0.05149857699871063	0.1356069445610046	1.542864918708801	0.1805841326713562	0.2730661332607269	0.06645963340997696	-0.2590533792972565	0.2970936894416809	1.120950102806091	0.01149038691073656	0.1814485490322113	1.478799700737	-0.1032065227627754	0.09565916657447815	1.776216745376587	0.05587305128574371	0.4538742005825043	1.277022123336792	-0.01986723765730858	0.2006426602602005	1.848540663719177	0.1190856099128723	0.2788161337375641	1.191228151321411	0.3025831878185272	0.3824850618839264	1.239077091217041	0.1177951022982597	0.1953634768724442	0.07140067219734192	-0.3146792054176331	0.3150528371334076	1.207297444343567	-0.07323236763477325	0.2994193136692047	0.5818638801574707	-0.1654876172542572	0.170108750462532	0.07470281422138214	-0.2072458267211914	0.3777865171432495	1.261963844299316	-0.07237621396780014	0.1727874875068665	0.5517369508743286	-0.1273562908172607	0.1616077423095703	1.179569840431213	-0.1553398668766022	0.3054887652397156	1.637390732765198	0.0738341361284256	0.313713401556015	0.6844339370727539	-0.157986044883728	0.2983813285827637	0.4740493893623352	-0.2246592938899994	0.2580554783344269	0.07619865238666534	-0.06868284195661545	0.4088159203529358	1.459071278572083	0.03580612316727638	0.270290195941925	1.232874035835266	0.2015350311994553	0.2865357398986816	1.146017551422119	0.1963407844305038	0.00847287941724062	0.09844037145376205	0.04415366798639297	0.007057998795062304	1.102025389671326	0.06271116435527802	-0.006398566998541355	1.459655046463013	-0.06753157824277878	0.01342829782515764	1.781075596809387	0.1810481250286102	-0.1866501867771149	1.209326386451721	0.08485249429941177	0.1161602512001991	1.850124835968018	0.2512494921684265	0.09782931953668594	1.241183280944824	0.268587589263916	-0.059836745262146	1.218039751052856	0.1800328195095062	0.06308276206254959	0.09058520197868347	-0.01673064939677715	-0.04997490346431732	1.165220618247986	-0.01056595426052809	0.03709209710359573	0.6000822186470032	0.1891474723815918	0.1120739653706551	0.07813815772533417	0.05181246995925903	-0.1283162087202072	1.207689046859741	0.0112830176949501	0.1684015691280365	0.6028894186019897	0.1530723124742508	0.05959960073232651	1.167517304420471	-0.1322305053472519	-0.07158912718296051	1.579920411109924	0.1614984571933746	-0.02010931819677353	0.7524937987327576	0.1140748262405396	-0.003232631832361221	0.473806768655777	0.1112471222877502	0.07645721733570099	0.08445265889167786	0.2680299580097198	-0.1492802500724792	1.391909241676331	0.1469738483428955	0.09305045008659363	1.226500153541565	0.2043980807065964	0.04549745097756386	1.167844295501709	0.2478092461824417	0.1623133271932602	1.342241048812866	0.1404910683631897	0.1083619669079781	1.304259657859802	-0.1158585026860237	
81	0.2222222222222222	0.08674048632383347	1.647839665412903	0.05122564360499382	0.1344694793224335	1.542930960655212	0.180839478969574	0.2729837894439697	0.06647766381502151	-0.258995920419693	0.296899825334549	1.120797634124756	0.01272830925881863	0.1818164438009262	1.478431582450867	-0.1027022898197174	0.09518519043922424	1.776227355003357	0.05575475096702576	0.4539065957069397	1.276654720306396	-0.01689732447266579	0.2001247555017471	1.848427772521973	0.1190836876630783	0.2764022946357727	1.192030191421509	0.3045778274536133	0.3815068900585175	1.239231467247009	0.1202887520194054	0.1953126937150955	0.07141271978616714	-0.3146568238735199	0.3152063488960266	1.207118272781372	-0.07191330939531326	0.2998615801334381	0.5816315412521362	-0.1639267355203629	0.1699623763561249	0.07464995980262756	-0.207201212644577	0.3782357275485992	1.261517286300659	-0.07004602253437042	0.1731791198253632	0.5513832569122314	-0.1260205656290054	0.1618432402610779	1.179205894470215	-0.1545271426439285	0.3049890398979187	1.637209415435791	0.07500879466533661	0.3140361309051514	0.6841801404953003	-0.156494215130806	0.2986963391304016	0.4739218950271606	-0.2235343903303146	0.2580183744430542	0.0760769248008728	-0.06863351166248322	0.4086374938488007	1.458810091018677	0.03791157528758049	0.2686189711093903	1.233065247535706	0.2030967622995377	0.2853295803070068	1.146286487579346	0.198442205786705	0.008526444435119629	0.09779880195856094	0.04490131139755249	0.006822328548878431	1.101802349090576	0.06302136927843094	-0.006136778742074966	1.459449410438538	-0.06811037659645081	0.01274891849607229	1.781225085258484	0.1807960271835327	-0.1874677389860153	1.209602236747742	0.0834333524107933	0.1154854446649551	1.85015082359314	0.2511679232120514	0.09585195034742355	1.241711139678955	0.268986314535141	-0.06107468903064728	1.218311190605164	0.1793787479400635	0.06358012557029724	0.08971770107746124	-0.01558330282568932	-0.05014478787779808	1.164982318878174	-0.01042213477194309	0.03677146881818771	0.599557101726532	0.1890249699354172	0.1121075302362442	0.07715176045894623	0.05320703238248825	-0.1286202520132065	1.207806468009949	0.01023261062800884	0.1681345850229263	0.6024128794670105	0.1534207165241241	0.0595763698220253	1.167246222496033	-0.1319050937891006	-0.07262808829545975	1.580257058143616	0.1603171825408936	-0.020333057269454	0.7517929077148438	0.1139487102627754	-0.003342884127050638	0.4733290374279022	0.1108535155653954	0.07494846731424332	0.08360112458467484	0.269284576177597	-0.1504965722560883	1.392390012741089	0.1453203409910202	0.09147162735462189	1.226869106292725	0.2046340852975845	0.04362356662750244	1.16831910610199	0.247922420501709	0.1613108068704605	1.34216582775116	0.1418386846780777	0.1086271554231644	1.303943157196045	-0.1155325397849083	
82	0.225	0.08639363944530487	1.647742867469788	0.05101757496595383	0.1331302672624588	1.543005704879761	0.1811381727457047	0.2729195952415466	0.0665142759680748	-0.258938729763031	0.2966654002666473	1.120630264282227	0.01427214965224266	0.1822943240404129	1.477931022644043	-0.1020083725452423	0.09460724890232086	1.776227712631226	0.05565710738301277	0.453977108001709	1.276363134384155	-0.01406246423721313	0.199625164270401	1.848334193229675	0.1190627068281174	0.2741744816303253	1.192819714546204	0.3064361810684204	0.3806571364402771	1.239421844482422	0.1228666082024574	0.1952747404575348	0.07140827924013138	-0.3146491646766663	0.3152901530265808	1.206937074661255	-0.07067713886499405	0.3001314997673035	0.5813506841659546	-0.1625198721885681	0.1698521375656128	0.07460755109786987	-0.2071664184331894	0.378628671169281	1.26102876663208	-0.06731853634119034	0.1735564917325974	0.5509369373321533	-0.1245427429676056	0.162018209695816	1.178797364234924	-0.1537153720855713	0.3045061826705933	1.637073278427124	0.07618237286806107	0.3144336342811584	0.6837590336799622	-0.1546185314655304	0.2991144359111786	0.4737147986888885	-0.2220813184976578	0.2579395174980164	0.07594889402389526	-0.06854505836963654	0.4082993865013123	1.458613395690918	0.03998338431119919	0.2672401666641235	1.233367919921875	0.2048674523830414	0.283760666847229	1.146670818328857	0.2006375044584274	0.008543028496205807	0.09694669395685196	0.04559720307588577	0.006477698218077421	1.101519584655762	0.0634576603770256	-0.005918287672102451	1.45929491519928	-0.06867170333862305	0.01212889887392521	1.781348824501038	0.1805609166622162	-0.1882853955030441	1.209884166717529	0.08198293298482895	0.1147743090987206	1.85019862651825	0.2510428428649902	0.09371192753314972	1.24214768409729	0.2694061994552612	-0.06224962323904037	1.218606948852539	0.1788454949855804	0.06400741636753082	0.08894737809896469	-0.01446940004825592	-0.05023431777954102	1.164736032485962	-0.01021748222410679	0.03637220337986946	0.5990524291992188	0.1888067722320557	0.1122061163187027	0.07619120180606842	0.05458232387900352	-0.1289095282554626	1.207951307296753	0.00914339441806078	0.167868584394455	0.6018947958946228	0.1537074744701385	0.05983163043856621	1.166843771934509	-0.1312940865755081	-0.07376661896705627	1.580617547035217	0.1591762155294418	-0.02052346989512444	0.751089870929718	0.1137295216321945	-0.00352783128619194	0.472803920507431	0.1104116216301918	0.07359442859888077	0.0823994055390358	0.2703462541103363	-0.1518409103155136	1.392806529998779	0.1436570435762405	0.08992642164230347	1.227270126342773	0.2051047831773758	0.04159542918205261	1.16883385181427	0.2481269389390945	0.160285621881485	1.342154383659363	0.1426370292901993	0.1089597418904305	1.303555488586426	-0.1151735708117485	
83	0.2277777777777778	0.08620335906744003	1.647682547569275	0.05089105293154716	0.1323882639408112	1.543032646179199	0.1812161505222321	0.2728762030601501	0.06654404103755951	-0.2588985562324524	0.2966725826263428	1.120544075965881	0.01497181598097086	0.1825361251831055	1.477672338485718	-0.1016480848193169	0.09430155158042908	1.776215076446533	0.05559065192937851	0.4539838433265686	1.276097059249878	-0.01205814629793167	0.1992813050746918	1.848265886306763	0.1190220415592194	0.272633969783783	1.193326711654663	0.3076435923576355	0.3799790143966675	1.239471197128296	0.1245221644639969	0.1952249109745026	0.07141558825969696	-0.3146267831325531	0.3152886629104614	1.206838488578796	-0.06993068754673004	0.3003797829151154	0.5811554193496704	-0.1613676995038986	0.1697856783866882	0.07457341253757477	-0.207143247127533	0.3788105249404907	1.260750412940979	-0.06574615836143494	0.1738261580467224	0.5506569147109985	-0.1234270036220551	0.1621029824018478	1.178598880767822	-0.1532371491193771	0.3041384816169739	1.636937618255615	0.07698453962802887	0.3146946430206299	0.6835988759994507	-0.1535492539405823	0.2994585931301117	0.4735829830169678	-0.2210350930690765	0.2579201757907867	0.07580311596393585	-0.06848692148923874	0.4080570340156555	1.458495259284973	0.04164009913802147	0.2661986351013184	1.233633399009705	0.2060600966215134	0.2829290330410004	1.146869421005249	0.2020201086997986	0.008551426231861115	0.09647349268198013	0.04607081785798073	0.00630029384046793	1.101380944252014	0.06373575329780579	-0.005815729964524508	1.459166288375854	-0.06902281194925308	0.01170593686401844	1.781384944915771	0.1803846955299377	-0.1888705641031265	1.210080504417419	0.08103553950786591	0.1142461374402046	1.850239992141724	0.2509456276893616	0.09223726391792297	1.242571711540222	0.2696259319782257	-0.0636172890663147	1.218894958496094	0.1784889250993729	0.06432276219129562	0.0884220227599144	-0.01371769141405821	-0.05028863251209259	1.164552330970764	-0.01008785609155893	0.03608858585357666	0.5986349582672119	0.1886189728975296	0.1121848374605179	0.07557691633701324	0.05540996789932251	-0.1292578130960464	1.208095550537109	0.00836548674851656	0.1676697134971619	0.6014933586120605	0.1538418829441071	0.05999794602394104	1.166557550430298	-0.130912184715271	-0.07449410855770111	1.580798506736755	0.1583762913942337	-0.0206857193261385	0.7505549788475037	0.113538071513176	-0.003655522596091032	0.4723721444606781	0.1101100221276283	0.07270905375480652	0.08140891790390015	0.2711876332759857	-0.1527638882398605	1.393173217773438	0.1425090432167053	0.08889834582805634	1.227556347846985	0.2053214758634567	0.04042961820960045	1.169116973876953	0.248220220208168	0.1596185564994812	1.342113018035889	0.1428242623806	0.1091482639312744	1.303288698196411	-0.1148909106850624	
